<?xml version="1.0" encoding="UTF-8"?>
<svg width="17px" height="17px" viewBox="0 0 17 17" version="1.1" xmlns="http://www.w3.org/2000/svg" xmlns:xlink="http://www.w3.org/1999/xlink">
    <!-- Generator: Sketch 49 (51002) - http://www.bohemiancoding.com/sketch -->
    <title>Page 1</title>
    <desc>Created with Sketch.</desc>
    <defs>
        <polygon id="path-1" points="0 0 17 0 17 17 0 17"></polygon>
    </defs>
    <g id="Symbols" stroke="none" stroke-width="1" fill="none" fill-rule="evenodd">
        <g id="Icons/Search">
            <g id="Page-1">
                <mask id="mask-2" fill="white">
                    <use xlink:href="#path-1"></use>
                </mask>
                <g id="Clip-2"></g>
                <path d="M10.160026,10.1651738 C8.22625528,12.0975065 5.07338746,12.0975065 3.13740825,10.1651738 C1.20407925,8.22356601 1.20407925,5.07706597 3.13740825,3.13545814 C5.07338746,1.20312551 8.22625528,1.20312551 10.160026,3.13545814 C12.0964469,5.07706597 12.0964469,8.22356601 10.160026,10.1651738 M11.3539461,1.94514124 C8.76159792,-0.648380413 4.53804482,-0.648380413 1.94392985,1.94514124 C-0.647976616,4.54175462 -0.647976616,8.76064407 1.94392985,11.3554907 C4.25623904,13.661923 7.85257551,13.9101449 10.4449237,12.1067817 C10.4974862,12.3642788 10.6255797,12.6111757 10.8261124,12.8108133 L14.5986879,16.5902351 C15.1539071,17.1365883 16.0404027,17.1365883 16.5885547,16.5902351 C17.1371484,16.0403484 17.1371484,15.1516962 16.5885547,14.6000429 L12.8120039,10.8237128 C12.6123547,10.6240752 12.3636765,10.4968725 12.1061643,10.4465215 C13.9113998,7.8516748 13.6631634,4.25334017 11.3539461,1.94514124" id="Fill-1" fill="#5C5C5C" mask="url(#mask-2)"></path>
            </g>
        </g>
    </g>
</svg>